Patient4_TMGait_0pt5_01_left_17_EMG.mot
version=1
nRows=39
nColumns=33
inDegrees=no
endheader
time	1LAddLong	2LGlutMax	3LGlutMed	4LIliopsoas	5LSemiMemb	6LBicFemLong	7LRecFem	8LVastMed	9LVastLat	10LGasMed	11LTibAnt	12lTibPost	13LPeroneusLong	14LSol	15LExtDigLong	16LFlexDigLong	17RAddLong	18RGlutMax	19RGlutMed	20RIliopsoas	21RSemiMemb	22RBicFemLong	23RRecFem	24RVastMed	25RVastLat	26RGasMed	27RTibAnt	28RTibPost	29RPeroneusLong	30RSol	31RExtDigLong	32RFlexDigLong
24.1	0.012512	0.020905	-0.088348	-0.000916	0.049133	-0.097961	0.01297	-0.001373	0.074158	-0.047455	0.026398	-0.002594	0.057373	-0.097046	-0.00061	-0.011902	0.01709	0.012817	-0.058136	0.023499	0.010223	0.13626	0.30151	0.021667	-0.018768	-0.0177	0.29221	0.000458	-0.1329	0.070801	-0.00473	-0.001526
24.101	0.007629	0.012665	-0.12711	-0.001373	0.037994	-0.049438	0.021057	-0.00351	0.067139	-0.067444	0.016937	-0.00061	0.058289	0.012665	0.003204	-0.005493	0.002441	0.030212	0.7695	-0.040283	0.032196	0.13596	0.29663	-0.012512	-0.00946	-0.013123	-0.15945	0.000305	0.30807	-0.016785	-0.003357	-0.004578
24.102	0.000916	0.037079	-0.12085	-0.00061	0.025024	-0.045319	-0.000305	0.009003	0.052338	-0.076904	0.018158	-0.002747	0.074005	0.033112	0.001678	-0.002441	0.00351	0.019379	0.045166	0.098267	0.001221	0.11566	0.11887	-0.103	0.00824	-0.013885	-0.68603	-0.00061	0.58456	-0.093689	-0.002747	-0.006409
24.103	-0.001068	0.036011	-0.11444	0.012207	0.024109	-0.029144	0.022583	-0.002747	0.060425	-0.073242	0.036011	0.007935	0.080414	0.063782	0.002747	-0.007935	-0.016327	-0.030975	-0.31296	0.11993	0.007935	0.084534	-0.10895	-0.009613	0.014496	-0.004883	-0.30167	-0.000305	0.47241	-0.22415	-0.001831	-0.008392
24.104	-0.007629	0.050049	-0.084839	0.001678	0.011597	-0.007782	-0.004425	0.012817	0.055695	-0.055695	0.006409	0.013428	0.024719	0.022736	0.006256	-0.009308	-0.011292	0.03006	0.35645	0.075378	0	0.075378	-0.18234	0.12894	0.062256	0.015717	0.3865	0.000916	0.69229	-0.34683	-0.003662	-0.001526
24.105	-0.015564	0.041504	-0.040741	-0.00824	-0.022736	0.002899	0.021973	0.005493	0.059662	-0.039978	0.018158	-0.008392	-0.003815	-0.019836	-0.009613	-0.006409	-0.001221	0.016174	0.045929	0.10391	0.000763	0.0737	-0.11139	0.19226	0.10269	-0.011444	0.47501	-0.001221	-0.25421	-0.14633	-0.003662	-0.006714
24.106	-0.003204	0.025482	-0.022583	-0.001984	-0.067749	0.030823	0.023346	0.00885	0.064545	-0.00473	0.001373	0.009613	0.019836	-0.083008	-0.015106	-0.002747	0.007629	0.037079	0.11261	0.025177	-0.014496	0.035858	0.09903	0.13306	0.014038	-0.028076	0.62118	-0.005798	-0.71671	0.067139	0.000458	-0.016174
24.107	0.007019	0.022125	-0.012207	0	-0.044403	-0.010681	-0.003815	-0.000916	0.052032	0.021362	-0.01358	0.005341	-0.035248	-0.20569	-0.003052	-0.003967	0.011139	0.079346	0.23666	-0.002289	-0.005188	-0.000458	-0.003357	0.058289	-0.10956	0.005341	0.4866	0.000153	-0.17716	-0.028687	-0.001984	-0.019379
24.108	0.001526	-0.02121	-0.008698	0.00885	-0.021667	-0.054016	0.009308	-0.009155	0.063934	0.006561	0.016785	0.016479	-0.041199	-0.23773	-0.001068	-0.009308	0.012665	0.080261	0.36957	-0.034485	-0.013123	-0.014496	0.006561	-0.015717	-0.1796	0.017242	-0.3952	-0.000458	0.51758	-0.076599	-0.00412	-0.013123
24.109	0.013885	-0.019073	-0.011444	0.000763	0.061646	-0.03891	0.010223	-0.009308	0.061493	-0.00946	-0.006714	-0.009308	-0.001831	-0.18066	0.00946	0	0.005188	0.1033	-0.1619	0.035095	-0.001526	0.036469	0.054779	0.033417	0.010071	0.007172	-0.76248	0.003815	0.22492	0.01358	-0.004272	-0.011902
24.11	0.014648	-0.006104	-0.0354	-0.006714	0.13672	-0.003662	0.02594	0.024109	0.045319	-0.056458	0.011292	-0.021515	0.024414	-0.09201	0.010529	-0.006866	0.018921	0.06485	-0.42999	0.034485	-0.014954	-0.016022	0.1268	0.025787	0.092926	0.006256	-0.67856	-0.000458	-0.19211	0.054932	-0.002899	-0.006714
24.111	0.007629	-0.028687	-0.039978	-0.01297	0.075226	0.050964	0.027161	-0.040131	0.038605	-0.067291	0.011444	0.00412	0.006256	-0.13245	0.010223	-0.007172	0.018616	0.036621	-0.20187	-0.00946	-0.026703	-0.028992	0.016022	-0.033569	0.1268	0.001526	-0.82443	0.001831	0.091095	0.11536	-0.00351	-0.011292
24.112	-0.005951	-0.048065	-0.066376	0.009766	0.036469	0.047607	0.02243	0.003967	0.035706	-0.059814	0.013733	0.015411	0.00473	-0.23438	0.006409	-0.012054	-0.000916	0.075226	0.57648	-0.016479	-0.006714	-0.016022	-0.00351	0.003357	0.1619	-0.007172	-0.68726	0	0.00061	0.17548	0	-0.011444
24.113	0.000763	-0.030518	-0.091248	0.025635	0.001373	0.055847	0.013428	0.010681	0.03952	-0.06546	0.006409	0.004425	0.025024	-0.16312	0.010529	-0.00473	0.014038	0.062408	0.49667	0.035858	-0.015259	-0.010834	0.11185	-0.019684	-0.025482	-0.011444	-0.41443	-0.003967	-0.2533	0.18005	-0.003052	-0.00946
24.114	-0.001984	-0.016022	-0.043488	0.021973	-0.025024	0.015411	0.008392	0.003662	0.038605	-0.049896	0.008698	-0.00061	0.053253	-0.047607	0.009308	0.003357	0.033112	0.060425	-0.32242	0.025787	-0.069275	-0.003662	0.001831	-0.093689	-0.096436	-0.008545	-0.2066	-0.000305	0.012054	0.22324	-0.00351	-0.00885
24.115	0.007019	-0.029755	0.006561	0.016327	0.009155	-0.036926	-0.001068	0.001984	0.043335	-0.037842	0.009155	0.005035	0.081329	-0.09613	0.007935	-0.007324	0.048676	0.079498	-0.093842	-0.032959	-0.099945	-0.018768	0.055237	-0.10223	-0.15884	0.000305	0.15427	0.003052	0.17532	0.06134	-0.003662	-0.007629
24.116	0.013275	-0.024872	0.015869	0.001678	-0.003204	-0.032349	-0.002899	-0.007172	0.044403	-0.028687	0.006104	0.001373	0.020142	-0.1503	0.001678	-0.007477	0.007019	0.078888	0.44968	-0.047455	-0.0383	-0.011597	-0.071259	-0.087128	-0.34393	0.004578	-0.11536	0.000763	0.25162	-0.058441	-0.00351	-0.001526
24.117	0.009766	-0.07843	0.026245	0.008392	-0.073395	-0.021057	0.001526	-0.001526	0.03891	-0.014801	0.008698	-0.002899	-0.023651	-0.036011	-0.000916	0.003204	-0.006714	-0.04776	-0.032196	0.002594	0.003662	-0.059967	-0.093994	-0.052948	-0.20493	0.000916	-0.063171	-0.000305	0.026245	-0.027466	-0.002594	-0.001221
24.118	0.005493	-0.047302	0.008545	0.016937	-0.022736	-0.020447	-0.001221	-0.002594	0.050354	-0.016937	0.018311	-0.012817	0.001831	0.012817	-0.003967	0.003204	-0.000153	-0.002136	0.014191	0.008698	0.000458	-0.063171	-0.18402	0.035095	0.12177	-0.006561	-0.073853	-0.002136	0.21454	0.006409	-0.002899	-0.010376
24.119	0.012665	-0.06134	-0.039978	-0.004425	0.072784	-0.014191	-0.021057	-0.006104	0.038452	-0.022583	0.011749	0.00885	0.00412	0.018005	-0.001678	-0.007019	-0.002747	0.00061	-0.06134	0.027618	-0.023956	-0.072174	-0.07309	0.076447	0.20706	-0.010681	-0.26337	-0.007172	-0.045471	0.071259	-0.001221	-0.014801
24.12	0.015717	-0.074463	-0.073395	0.013123	0.07309	-0.017395	-0.007019	-0.000763	0.024719	-0.029602	0.013733	0.010986	-0.011749	-0.019684	0.005493	-0.005646	0.006561	-0.046387	-0.26108	0.022278	-0.032043	-0.018616	0.12344	0.079956	0.032959	-0.012817	-0.79971	-0.000916	-0.35538	0.025635	0.001526	-0.013428
24.121	0.01358	-0.065002	-0.064545	0.014038	0.065613	-0.011597	0.009308	-0.002136	0.029449	-0.037994	0.023193	0	-0.005188	-0.002441	0.001221	0.010529	0.004425	-0.005493	-0.065155	0.027466	-0.003967	0.015259	0.12085	0.061493	0.023041	-0.014496	-0.15823	-0.001068	-0.19211	-0.042267	-0.003052	-0.013275
24.122	-0.00061	-0.056	-0.064392	-0.00061	0.06012	0.018921	0.013733	-0.000763	0.023499	-0.043793	0.016937	0.00061	-0.013733	-0.036621	-0.003662	-0.007935	0.004578	-0.016174	0.09964	-0.024567	0.001831	0.06958	0.16083	0.096283	0.016937	-0.006104	-0.081177	0.001221	-0.15839	-0.15961	-0.002441	-0.013733
24.123	-0.001831	-0.059204	-0.08316	-0.005646	0.034027	0.02182	0.011749	-0.001068	0.016632	-0.037842	0.016327	0	-0.02243	-0.025024	-0.007782	-0.006866	0.005951	-0.048828	0.15595	0.013885	0.003967	0.12772	0.19714	0.087585	0.00946	0.004425	-0.4776	0.001831	0.50491	-0.12283	-0.003357	-0.009613
24.124	-0.004425	-0.063324	-0.054016	-0.001678	-0.020142	0.021057	0.012512	0.005035	0.024109	-0.037384	0.010681	0.005035	-0.004425	-0.041199	-0.001831	0.000763	0.002899	-0.023193	0.041504	-0.015717	-0.009766	0.089874	0.25528	0.09201	-0.046692	-0.005341	-0.50812	0.001373	0.64468	0.01297	0.007477	-0.011292
24.125	-0.011139	-0.088196	-0.00473	0.00473	-0.047913	0.007935	0.010529	-0.001984	0.021362	-0.025177	0.012512	0.005798	0.006104	-0.037842	0.000763	-0.002289	0.010071	0.029297	0.33005	-0.023193	-0.002289	0.050049	0.18936	0.06134	-0.002441	0.000153	-0.31509	0.000763	1.1624	0.048523	-0.007172	-0.005798
24.126	-0.009308	-0.097656	-0.009613	0.010986	-0.044708	-0.035248	0.00412	0.004578	0.020294	-0.029144	0.006256	0.002594	0.004425	-0.058746	-0.000916	-0.001831	0.021362	0.021973	0.48386	0.03067	-0.003662	0.028839	-0.096741	0.014648	0.046692	-0.006409	0.061798	0.001068	-0.053711	0.045929	-0.002289	-0.010376
24.127	0.014343	-0.099487	-0.00946	0.010376	0.03067	-0.042572	-0.003204	-0.007324	0.032043	-0.021973	0.009308	0.012054	-0.01358	-0.058594	0.002289	0.00351	0.007629	-0.007782	0.20859	0.062561	0.002441	0.037689	-0.074158	0.017395	0.10529	-0.01358	0.38696	0.00351	-1.3567	0.010071	-0.003052	-0.003357
24.128	0.024109	-0.10025	-0.030365	0.014343	0.048981	-0.012512	-0.015869	0.000763	0.019836	-0.025635	0.032959	0.010834	-0.0177	-0.059967	0.001831	-0.002136	0.007935	-0.019989	0.042877	0.070496	-0.006866	0.017395	0.25299	0.078583	0.12253	-0.006256	0.79437	0.00061	-1.472	-0.15472	-0.002441	-0.006256
24.129	0.019836	-0.11993	-0.067444	0.010986	0.075989	-0.009003	-0.005646	-0.004883	0.019073	-0.024109	0.001678	0.005646	-0.037079	-0.042725	0.000153	0.009918	0.013428	-0.00885	-0.27939	0.1004	-0.005493	0.037842	0.44754	0.044708	0.11169	-0.004578	0.89829	0.00061	-1.4238	-0.12924	-0.003967	-0.008545
24.13	0.012054	-0.13596	-0.081482	0.006409	0.077972	0.084229	-0.005188	-0.002747	0.030518	-0.038452	0.009308	-0.002441	-0.041809	-0.058136	-0.002594	-0.002441	0.016479	-0.079346	-0.71854	0.080566	-0.002747	0.027771	0.4657	0.058289	0.091705	-0.008545	0.52048	0.000763	0.42175	-0.059052	-0.003662	-0.001831
24.131	0.004578	-0.11322	-0.05127	0.007019	0.078735	0.14679	-0.017853	0.00061	0.026245	-0.040131	-0.011139	-0.021667	-0.023193	-0.051422	-0.000916	0.006104	0.00824	-0.053711	-0.49576	-0.005341	0.00946	0.056763	0.25223	0.010376	-0.14755	0.000763	-0.50079	-0.000305	0.86838	-0.098572	-0.001373	0.002899
24.132	-0.010681	-0.12482	-0.062561	0.023804	0.075684	0.16419	-0.016785	0.005493	0.028992	-0.032654	-0.002747	-0.00061	-0.011139	-0.063934	0.002441	-0.009308	0.000458	-0.046082	-0.23773	-0.045776	0.017853	0.073242	0.25574	-0.094452	-0.30914	0.000916	-1.1176	0.001221	0.69199	-0.08194	-0.005341	-0.000916
24.133	-0.007019	-0.12344	-0.075531	0.003204	-0.018921	0.18204	-0.010223	0.005646	0.022125	-0.033875	-0.003357	0.000153	-0.013885	-0.09552	0.000916	0.000458	-0.006104	-0.023956	-0.38147	-0.048676	0.010223	0.050049	-0.007629	-0.26001	-0.14816	-0.010986	-0.61859	-0.001831	0.15305	0.05127	-0.000458	-0.006409
24.134	0.007477	-0.10651	-0.095215	0.005188	-0.18433	0.067444	-0.028076	0.002441	0.018311	-0.026855	0.019226	0.003967	-0.016327	-0.078278	0.005341	-0.004578	-0.016327	0.000763	-0.22553	0.003052	0.002747	0.020447	-0.32547	-0.31387	0.02243	-0.006256	-0.2742	0.000916	-0.2121	-0.025635	-0.003204	0.006409
24.135	0.012207	-0.14328	-0.095215	0.010986	-0.16022	-0.097351	-0.034943	0.000458	0.015869	-0.032349	0.003052	0.009613	-0.02121	-0.070648	0.008087	0.000916	-0.019989	-0.027466	-0.29312	-0.04364	0.009155	0.040588	-0.56198	-0.10696	0.1831	-0.010376	0.20996	0.001373	-0.17181	-0.030518	-0.001526	-0.00946
24.136	0.033112	-0.12299	-0.075684	0.002136	-0.002136	-0.14038	-0.054626	-0.00824	0.010834	-0.032806	-0.003815	-0.010223	-0.0177	-0.091858	0.010223	-0.003357	-0.008698	-0.036621	0.32272	-0.014191	-0.000458	0.030518	-0.65414	-0.025787	0.17853	-0.010986	0.82489	0.003662	0.28809	-0.00885	-0.001831	-0.00885
24.137	0.033112	-0.10452	-0.093231	0.029755	0.042725	-0.043793	-0.030365	-0.005035	0.008087	-0.037079	-0.003662	0.000153	-0.03479	-0.07431	0.004272	-0.005646	0.002594	-0.059204	0.044403	0.080109	-0.002899	0.006866	-0.4007	0.1709	0.18356	-0.003052	0.78445	0.001678	0.33096	-0.12207	-0.000305	-0.007477
24.138	0.029297	-0.15182	-0.11627	0.013885	0.039978	0.038147	-0.051575	-0.007935	0.001526	-0.042114	0.029907	0.000763	-0.042725	-0.098724	0.008392	0.001373	0.009766	-0.043335	-0.11154	0.11765	-0.003357	0.024872	-0.040131	0.29526	0.15427	0.021973	0.14252	-0.000305	-0.15854	-0.33371	-0.002441	-0.007477
